<svg xmlns="http://www.w3.org/2000/svg" width="96" height="96" viewBox="0 0 64 64" fill="none">
  <defs>
    <radialGradient id="plate" cx="0" cy="0" r="1" gradientUnits="userSpaceOnUse" gradientTransform="translate(26 16) rotate(50) scale(56)">
      <stop stop-color="#a363ff"/>
      <stop offset=".46" stop-color="#5524a0"/>
      <stop offset="1" stop-color="#111418"/>
    </radialGradient>
    <linearGradient id="frame" x1="12" y1="11" x2="52" y2="54" gradientUnits="userSpaceOnUse">
      <stop stop-color="#efb2ff"/>
      <stop offset=".5" stop-color="#a363ff"/>
      <stop offset="1" stop-color="#5524a0"/>
    </linearGradient>
    <radialGradient id="coreGem" cx="0" cy="0" r="1" gradientUnits="userSpaceOnUse" gradientTransform="translate(30 22) rotate(51) scale(30)">
      <stop stop-color="#fff0ff" stop-opacity=".98"/>
      <stop offset=".55" stop-color="#a363ff" stop-opacity=".92"/>
      <stop offset="1" stop-color="#5524a0" stop-opacity=".98"/>
    </radialGradient>
    <linearGradient id="edgeStroke" x1="16" y1="16" x2="48" y2="48">
      <stop stop-color="rgba(255,255,255,.9)"/>
      <stop offset="1" stop-color="rgba(255,255,255,.2)"/>
    </linearGradient>
    <filter id="glow" x="-30%" y="-30%" width="160%" height="160%">
      <feDropShadow dx="0" dy="0" stdDeviation="4" flood-color="#efb2ff" flood-opacity=".3"/>
      <feDropShadow dx="0" dy="8" stdDeviation="7" flood-color="black" flood-opacity=".45"/>
    </filter>
  </defs>

  <g filter="url(#glow)">
    <path d="M32 7.5 48.5 13 56.5 32 48.5 51 32 56.5 15.5 51 7.5 32 15.5 13 32 7.5Z" fill="url(#plate)" stroke="url(#frame)" stroke-width="2"/>
    <path d="M32 12.5 45.5 17 52 32 45.5 47 32 51.5 18.5 47 12 32 18.5 17 32 12.5Z" fill="rgba(6,8,8,.32)" stroke="rgba(255,255,255,.08)" stroke-width="1.2"/>
    <path d="M19 18.5 32 14l13 4.5" stroke="rgba(255,255,255,.24)" stroke-width="1.2" stroke-linecap="round"/>
    <path d="M16 47c5.4-3 10.7-4.4 16-4.4 5.3 0 10.6 1.4 16 4.4" stroke="rgba(255,255,255,.09)" stroke-width="1.2" stroke-linecap="round"/>
    
          <path d="M18 45h28l-2.8-15.4-7.6 6.2L32 20l-3.6 15.8-7.6-6.2L18 45Z" fill="url(#coreGem)"/>
          <path d="M22 42h20" stroke="rgba(255,255,255,.65)" stroke-width="2.4" stroke-linecap="round"/>
          <circle cx="32" cy="28.5" r="3.1" fill="rgba(255,255,255,.62)" />
        
    <ellipse cx="26" cy="18" rx="10" ry="4.5" fill="white" fill-opacity=".12"/>
  </g>
</svg>